<?xml version="1.0" encoding="utf-8"?>
<!-- Generator: Adobe Illustrator 16.0.0, SVG Export Plug-In . SVG Version: 6.00 Build 0)  -->
<!DOCTYPE svg PUBLIC "-//W3C//DTD SVG 1.1//EN" "http://www.w3.org/Graphics/SVG/1.1/DTD/svg11.dtd">
<svg version="1.1" id="Layer_1" xmlns="http://www.w3.org/2000/svg" xmlns:xlink="http://www.w3.org/1999/xlink" x="0px" y="0px"
	 width="147.838px" height="44.34px" viewBox="0 0 147.838 44.34" enable-background="new 0 0 147.838 44.34" xml:space="preserve">
<g>
	<g>
		<path fill="#26A9E0" d="M61.623,31.508c-0.378,1.055-0.917,1.915-1.618,2.581c-0.566,0.555-1.208,0.964-1.922,1.228
			c-0.715,0.264-1.558,0.396-2.528,0.396c-1.16,0-2.138-0.194-2.934-0.583c-0.795-0.388-1.463-0.901-2.002-1.54
			c-0.485-0.555-0.87-1.199-1.153-1.936c-0.283-0.734-0.5-1.616-0.647-2.643c-0.148-1.026-0.236-2.227-0.263-3.601
			s-0.041-2.99-0.041-4.85c0-1.858,0.014-3.475,0.041-4.849s0.115-2.574,0.263-3.601c0.148-1.026,0.364-1.907,0.647-2.643
			c0.283-0.735,0.667-1.38,1.153-1.936c0.539-0.638,1.207-1.151,2.002-1.54c0.795-0.388,1.773-0.583,2.934-0.583
			c0.998,0,1.867,0.153,2.609,0.458c0.742,0.306,1.396,0.735,1.962,1.29c0.674,0.666,1.18,1.506,1.517,2.519
			c0.337,1.013,0.519,2.144,0.546,3.392H58.71c0-0.638-0.068-1.262-0.203-1.873c-0.135-0.61-0.364-1.124-0.688-1.54
			c-0.243-0.305-0.546-0.555-0.911-0.749c-0.364-0.194-0.816-0.292-1.355-0.292c-0.566,0-1.039,0.104-1.416,0.312
			c-0.378,0.208-0.688,0.479-0.931,0.812c-0.243,0.361-0.445,0.798-0.607,1.312c-0.162,0.514-0.29,1.18-0.384,1.998
			c-0.095,0.819-0.156,1.839-0.182,3.06c-0.027,1.221-0.041,2.706-0.041,4.453c0,1.749,0.013,3.233,0.041,4.454
			c0.026,1.222,0.087,2.241,0.182,3.06c0.094,0.818,0.223,1.484,0.384,1.998s0.364,0.95,0.607,1.311
			c0.243,0.333,0.552,0.604,0.931,0.812c0.377,0.209,0.85,0.313,1.416,0.313c0.539,0,0.991-0.104,1.355-0.313
			c0.364-0.208,0.668-0.464,0.911-0.77c0.324-0.416,0.56-0.922,0.708-1.52c0.148-0.597,0.223-1.214,0.223-1.853h3.479
			C62.203,29.302,62,30.455,61.623,31.508z"/>
		<path fill="#26A9E0" d="M78.048,35.379l-7.443-20.271v20.271h-3.479V5.744h3.237l7.403,20.271L77.726,5.744h3.479v29.636H78.048z"
			/>
		<path fill="#26A9E0" d="M87.232,35.379V5.744h3.479v29.636H87.232z"/>
		<path fill="#26A9E0" d="M109.524,36.378l-2.306-1.998c-0.513,0.416-1.113,0.743-1.801,0.979s-1.464,0.354-2.326,0.354
			c-1.16,0-2.138-0.194-2.934-0.583c-0.796-0.388-1.463-0.901-2.003-1.54c-0.485-0.555-0.869-1.199-1.152-1.936
			c-0.283-0.734-0.5-1.616-0.647-2.643c-0.148-1.026-0.236-2.227-0.263-3.601c-0.027-1.374-0.041-2.99-0.041-4.85
			c0-1.858,0.014-3.475,0.041-4.849c0.026-1.374,0.114-2.574,0.263-3.601c0.147-1.026,0.364-1.907,0.647-2.643
			c0.283-0.735,0.667-1.38,1.152-1.936c0.54-0.638,1.207-1.151,2.003-1.54c0.796-0.388,1.773-0.583,2.934-0.583
			c1.159,0,2.145,0.194,2.953,0.583c0.81,0.389,1.483,0.902,2.023,1.54c0.485,0.556,0.869,1.201,1.152,1.936
			c0.283,0.736,0.492,1.617,0.628,2.643c0.134,1.027,0.215,2.227,0.242,3.601c0.026,1.374,0.041,2.99,0.041,4.849
			c0,1.582-0.015,2.977-0.041,4.184c-0.027,1.207-0.081,2.283-0.162,3.226c-0.08,0.944-0.202,1.77-0.363,2.477
			c-0.162,0.708-0.392,1.34-0.688,1.895l2.307,1.997L109.524,36.378z M106.652,20.561c0-1.748-0.015-3.232-0.041-4.453
			c-0.027-1.221-0.081-2.248-0.162-3.08c-0.08-0.833-0.202-1.505-0.363-2.019c-0.162-0.513-0.378-0.95-0.647-1.311
			c-0.243-0.333-0.554-0.596-0.931-0.791c-0.378-0.194-0.85-0.292-1.416-0.292s-1.039,0.098-1.416,0.292
			c-0.378,0.194-0.688,0.458-0.931,0.791c-0.27,0.361-0.485,0.798-0.647,1.311c-0.162,0.514-0.283,1.187-0.364,2.019
			s-0.135,1.859-0.161,3.08c-0.027,1.221-0.041,2.706-0.041,4.453c0,1.749,0.014,3.233,0.041,4.454
			c0.026,1.222,0.08,2.248,0.161,3.08c0.081,0.833,0.202,1.506,0.364,2.019c0.162,0.514,0.378,0.951,0.647,1.312
			c0.243,0.333,0.553,0.597,0.931,0.791c0.377,0.194,0.85,0.291,1.416,0.291s1.052-0.139,1.456-0.416l-1.86-1.623l1.658-2.04
			l1.659,1.457c0.135-0.389,0.242-0.833,0.323-1.332c0.081-0.5,0.148-1.109,0.202-1.831s0.088-1.582,0.102-2.581
			S106.652,21.95,106.652,20.561z"/>
		<path fill="#26A9E0" d="M128.014,31.55c-0.323,0.86-0.782,1.596-1.376,2.206c-0.62,0.639-1.342,1.124-2.164,1.457
			c-0.823,0.332-1.706,0.499-2.65,0.499c-1.915,0-3.506-0.651-4.773-1.956c-0.594-0.61-1.053-1.346-1.376-2.206
			s-0.485-1.832-0.485-2.914V5.744h3.479v23.101c0,1.166,0.31,2.067,0.931,2.706c0.62,0.639,1.361,0.957,2.225,0.957
			s1.611-0.318,2.246-0.957c0.633-0.639,0.95-1.54,0.95-2.706V5.744h3.479v22.893C128.499,29.718,128.337,30.69,128.014,31.55z"/>
		<path fill="#26A9E0" d="M134.243,35.379V5.744h11.127v3.205h-7.647v9.948h6.595v3.206h-6.595v10.072h7.647v3.205H134.243z"/>
	</g>
	<g>
		<polygon fill="#26A9E0" points="35.266,31.689 31.079,31.689 31.079,36.015 31.08,36.015 35.266,36.015 		"/>
		<polygon fill="#26A9E0" points="39.455,5.723 39.455,10.05 35.267,10.05 35.267,14.378 31.08,14.378 31.08,18.705 26.891,18.705 
			26.891,23.031 22.704,23.031 22.704,27.359 18.516,27.359 18.516,31.687 14.329,31.687 14.329,36.015 22.704,36.015 
			22.704,31.687 26.891,31.687 26.891,27.359 31.079,27.359 31.079,23.031 35.266,23.031 35.266,18.705 39.455,18.705 
			39.455,23.031 39.455,27.359 39.455,31.689 39.455,36.015 42.063,36.015 43.642,36.015 43.642,31.687 43.642,27.359 
			43.642,23.033 43.642,18.705 43.642,14.378 43.642,10.05 43.642,5.723 		"/>
	</g>
	<g>
		<path fill="#26A9E0" d="M9.184,9.585v26.43H5.705V9.585H0.85V6.38h13.149v3.205H9.184z"/>
	</g>
</g>
</svg>
