<svg width="489" height="489" viewBox="0 0 489 489" fill="none" xmlns="http://www.w3.org/2000/svg">
<circle cx="244.5" cy="244.5" r="244.5" fill="#4A4A4A"/>
<path d="M307.412 238.118L257.187 287.196V161.156C257.187 154.584 251.727 149.25 245 149.25C238.272 149.25 232.812 154.584 232.812 161.156V287.196L182.588 238.13C177.823 233.475 170.108 233.475 165.355 238.13C160.589 242.785 160.589 250.322 165.355 254.965L234.299 322.319C237.224 325.176 241.222 326.057 245.013 325.402C248.791 326.057 252.801 325.164 255.726 322.319L324.67 254.965C329.436 250.31 329.436 242.774 324.67 238.13C319.892 233.475 312.177 233.475 307.412 238.118ZM245 54C137.312 54 50 139.284 50 244.5C50 349.716 137.312 435 245 435C352.688 435 440 349.703 440 244.5C440 139.297 352.701 54 245 54ZM245 411.187C150.766 411.187 74.375 336.559 74.375 244.5C74.375 152.441 150.766 77.8125 245 77.8125C339.234 77.8125 415.625 152.441 415.625 244.5C415.625 336.559 339.234 411.187 245 411.187Z" fill="#EDEDED"/>
</svg>
