<svg width="100" height="120" viewBox="0 0 100 120" fill="none" xmlns="http://www.w3.org/2000/svg">
<rect width="100" height="120" fill="white"/>
<path d="M22 32H61V39H63V31C63 30.4 62.6 30 62 30H21C20.4 30 20 30.4 20 31V89C20 89.6 20.4 90 21 90H53V88H22V32Z" fill="black"/>
<path d="M63.7 51.3L60.9 44.7C60.8 44.3 60.4 44.1 60 44.1C59.6 44.1 59.3 44.3 59.1 44.7L56.3 51.3C56.1 51.5 56 51.7 56 52V83V89C56 89.6 56.4 90 57 90H63C63.6 90 64 89.6 64 89V83V52C64 51.7 63.9 51.4 63.7 51.3ZM58 53H62V82H58V53ZM60 47.5L61.5 51H58.5L60 47.5ZM62 88H58V84H62V88Z" fill="black"/>
<path d="M79 68H68C67.4 68 67 68.4 67 69V89C67 89.6 67.4 90 68 90H79C79.6 90 80 89.6 80 89V69C80 68.4 79.6 68 79 68ZM78 70V75H69V70H78ZM69 88V77H78V88H69Z" fill="black"/>
<path d="M47 41C47 37.7 44.3 35 41 35C37.7 35 35 37.7 35 41C35 44.3 37.7 47 41 47C44.3 47 47 44.3 47 41ZM37 41C37 38.8 38.8 37 41 37C43.2 37 45 38.8 45 41C45 43.2 43.2 45 41 45C38.8 45 37 43.2 37 41Z" fill="black"/>
<path d="M47 50H35V52H47V50Z" fill="black"/>
<path d="M47 55H35V57H47V55Z" fill="black"/>
<path d="M41 61H26V63H41V61Z" fill="black"/>
<path d="M52 66H26V68H52V66Z" fill="black"/>
<path d="M52 71H26V73H52V71Z" fill="black"/>
<path d="M34 76H26V78H34V76Z" fill="black"/>
<path d="M37 81H26V83H37V81Z" fill="black"/>
<path d="M49 76H41V78H49V76Z" fill="black"/>
<path d="M52 81H41V83H52V81Z" fill="black"/>
</svg>
